<?xml version="1.0" encoding="UTF-8"?><!DOCTYPE svg PUBLIC "-//W3C//DTD SVG 1.1//EN" "http://www.w3.org/Graphics/SVG/1.1/DTD/svg11.dtd"><svg xmlns="http://www.w3.org/2000/svg"><symbol id="audio" viewBox="0 0 54 54"><path d="M39.6 17.9c-.5-.4-1.1-.6-1.6-.6-.7 0-1.4.3-1.9.9-.9 1.1-.8 2.7.3 3.6 1.5 1.3 2.4 3.2 2.4 5.2s-.9 3.9-2.4 5.2c-1.1.9-1.2 2.5-.3 3.6.5.6 1.2.9 1.9.9.6 0 1.2-.2 1.6-.6 2.7-2.3 4.2-5.6 4.2-9.1.1-3.5-1.5-6.8-4.2-9.1zm8-6.4c-.5-.5-1.1-.7-1.8-.7-.6 0-1.3.2-1.8.7-1 1-1 2.6 0 3.6 3.2 3.2 4.9 7.4 4.9 11.9s-1.7 8.7-4.9 11.9c-1 1-1 2.6 0 3.6.5.5 1.1.7 1.8.7s1.3-.2 1.8-.7C51.7 38.3 54 32.8 54 27c0-5.8-2.3-11.3-6.4-15.5zM27 0h-3.4L11.8 11.8H3.4c-1.9 0-3.4 1.5-3.4 3.4v23.6c0 1.9 1.5 3.4 3.4 3.4h8.4L23.6 54H27c1.9 0 3.4-1.5 3.4-3.4V3.4C30.4 1.5 28.9 0 27 0zm-1.7 48.5L13.9 37.1H5.1V16.9h8.8L25.3 5.5v43z" fill-rule="evenodd" clip-rule="evenodd" fill="#ff3334"/></symbol><symbol id="disk" viewBox="0 0 47 47"><path d="M23.5 0C10.5 0 0 10.5 0 23.5S10.5 47 23.5 47 47 36.5 47 23.5 36.5 0 23.5 0zm-10 7.3l5.1 10.8c-.2.1-.3.3-.4.4l-10.9-5C8.8 11 11 8.8 13.5 7.3zm10 35.3C13 42.6 4.4 34 4.4 23.5c0-2.1.4-4.1 1-6l10.9 5.1c0 .3-.1.6-.1.9 0 4.1 3.3 7.3 7.3 7.3.3 0 .6-.1.9-.1l5.1 10.9c-1.9.6-3.9 1-6 1zm-2.9-19.1c0-1.6 1.3-2.9 2.9-2.9 1.6 0 2.9 1.3 2.9 2.9s-1.3 2.9-2.9 2.9c-1.6 0-2.9-1.3-2.9-2.9zm12.9 16.2l-5.1-10.8c.2-.1.3-.3.5-.5l10.8 5.1c-1.5 2.5-3.7 4.7-6.2 6.2zm-2.8-15.3c0-.3.1-.6.1-.9 0-4.1-3.3-7.3-7.3-7.3-.3 0-.6.1-.9.1L17.5 5.4c1.9-.6 3.9-1 6-1C34 4.4 42.6 13 42.6 23.5c0 2.1-.4 4.1-1 6l-10.9-5.1z" fill-rule="evenodd" clip-rule="evenodd" fill="#ff3334"/></symbol><symbol id="headphones" viewBox="0 0 55 52"><path d="M50.6 31.7c.7-2.3 1.1-4.7 1.1-7.3C51.8 10.9 40.9 0 27.5 0 14.1 0 3.2 10.9 3.2 24.4c0 2.5.4 5 1.1 7.3C1.7 33.7 0 37 0 40.6 0 46.9 5.1 52 11.3 52h1.6c1.8 0 3.2-1.5 3.2-3.3V32.5c0-1.8-1.4-3.3-3.2-3.3h-1.6c-.9 0-1.7.1-2.5.3-.5-1.6-.7-3.4-.7-5.2 0-10.8 8.7-19.5 19.4-19.5s19.4 8.7 19.4 19.5c0 1.8-.3 3.5-.7 5.2-.8-.2-1.7-.3-2.5-.3h-1.6c-1.8 0-3.2 1.5-3.2 3.3v16.2c0 1.8 1.4 3.3 3.2 3.3h1.6C49.9 52 55 46.9 55 40.6c0-3.6-1.7-6.9-4.4-8.9zm-39.3 2.4v13c-3.6 0-6.5-2.9-6.5-6.5.1-3.6 3-6.5 6.5-6.5zm32.4 13v-13c3.6 0 6.5 2.9 6.5 6.5-.1 3.6-3 6.5-6.5 6.5z" fill-rule="evenodd" clip-rule="evenodd" fill="#ff3334"/></symbol><symbol id="kiwi" viewBox="0 65.326 612 502.174"><ellipse fill="#C6C6C6" cx="283.5" cy="487.5" rx="259" ry="80"/><path d="M210.333 65.331c-105.966.774-222.682 85.306-209.277 211.118 4.303 40.393 18.533 63.704 52.171 79.03 36.307 16.544 57.022 54.556 50.406 112.954-9.935 4.88-17.405 11.031-19.132 20.015 7.531-.17 14.943-.312 22.59 4.341 20.333 12.375 31.296 27.363 42.979 51.72 1.714 3.572 8.192 2.849 8.312-3.078.17-8.467-1.856-17.454-5.226-26.933-2.955-8.313 3.059-7.985 6.917-6.106 6.399 3.115 16.334 9.43 30.39 13.098 5.392 1.407 5.995-3.877 5.224-6.991-1.864-7.522-11.009-10.862-24.519-19.229-4.82-2.984-.927-9.736 5.168-8.351l20.234 2.415c3.359.763 4.555-6.114.882-7.875-14.198-6.804-28.897-10.098-53.864-7.799-11.617-29.265-29.811-61.617-15.674-81.681 12.639-17.938 31.216-20.74 39.147 43.489-5.002 3.107-11.215 5.031-11.332 13.024 7.201-2.845 11.207-1.399 14.791 0 17.912 6.998 35.462 21.826 52.982 37.309 3.739 3.303 8.413-1.718 6.991-6.034-2.138-6.494-8.053-10.659-14.791-20.016-3.239-4.495 5.03-7.045 10.886-6.876 13.849.396 22.886 8.268 35.177 11.218 4.483 1.076 9.741-1.964 6.917-6.917-3.472-6.085-13.015-9.124-19.18-13.413-4.357-3.029-3.025-7.132 2.697-6.602 3.905.361 8.478 2.271 13.908 1.767 9.946-.925 7.717-7.169-.883-9.566-19.036-5.304-39.891-6.311-61.665-5.225-43.837-8.358-31.554-84.887 0-90.363 29.571-5.132 62.966-13.339 99.928-32.156 32.668-5.429 64.835-12.446 92.939-33.85 48.106-14.469 111.903 16.113 204.241 149.695 3.926 5.681 15.819 9.94 9.524-6.351-15.893-41.125-68.176-93.328-92.13-132.085-24.581-39.774-14.34-61.243-39.957-91.247-21.326-24.978-47.502-25.803-77.339-17.365-23.461 6.634-39.234-7.117-52.98-31.273-29.365-51.617-81.947-74.215-137.452-73.811zM445.731 203.01c6.12 0 11.112 4.919 11.112 11.038 0 6.119-4.994 11.111-11.112 11.111s-11.038-4.994-11.038-11.111a11.01 11.01 0 0 1 11.038-11.038z"/></symbol><symbol id="lines" viewBox="0 0 55 40"><path d="M54.8 15.8L48.3 1.4C47.9.6 47.1 0 46.1 0c-1.2 0-2.1.8-2.4 1.9l-6.4 27.8-8.4-20.2c-.3-.9-1.2-1.5-2.2-1.5-1 0-1.9.6-2.2 1.5l-7.6 17.6-4.1-8.2c-.4-.8-1.2-1.3-2.2-1.3-.7 0-1.4.3-1.9.9L.6 28.1c-.4.4-.6.9-.6 1.5C0 30.9 1.1 32 2.4 32c.7 0 1.4-.3 1.9-.9l5.7-6.8 4.8 9.5c.4.8 1.2 1.3 2.2 1.3 1 0 1.9-.6 2.2-1.5l7.4-17.1 9.1 21.9c.4 1 1.3 1.6 2.3 1.6 1.2 0 2.1-.8 2.4-1.9L46.9 10l3.5 7.8c.4.8 1.2 1.4 2.2 1.4 1.3 0 2.4-1.1 2.4-2.4 0-.3-.1-.7-.2-1z" fill-rule="evenodd" clip-rule="evenodd" fill="#ff3334"/></symbol><symbol id="off" viewBox="0 0 50 51"><path d="M25 19.1c1.3 0 2.4-1.1 2.4-2.4V2.4C27.4 1.1 26.3 0 25 0c-1.3 0-2.4 1.1-2.4 2.4v14.3c0 1.4 1.1 2.4 2.4 2.4zM39.2 6c-.4-.3-.9-.4-1.3-.4-.8 0-1.5.4-2 1-.8 1.1-.5 2.6.6 3.3 5.5 3.7 8.7 9.9 8.7 16.4 0 11-9 19.9-20.2 19.9-11.1 0-20.2-8.9-20.2-19.9 0-6.5 3.3-12.6 8.7-16.4 1.1-.8 1.4-2.2.6-3.3-.5-.7-1.3-1.1-2.1-1-.5 0-.9.1-1.3.4C4 10.6 0 18.2 0 26.3 0 39.9 11.2 51 25 51s25-11.1 25-24.7c0-8.1-4-15.7-10.8-20.3z" fill-rule="evenodd" clip-rule="evenodd" fill="#ff3334"/></symbol></svg>