<?xml version="1.0" encoding="utf-8"?>
<!-- Generator: Adobe Illustrator 21.1.0, SVG Export Plug-In . SVG Version: 6.00 Build 0)  -->
<svg version="1.1" id="audio_1_" xmlns="http://www.w3.org/2000/svg" xmlns:xlink="http://www.w3.org/1999/xlink" x="0px" y="0px"
	 width="54px" height="54px" viewBox="0 0 54 54" style="enable-background:new 0 0 54 54;" xml:space="preserve">
<g id="audio">
	<g>
		<path style="fill-rule:evenodd;clip-rule:evenodd;fill:#FF3334;" d="M39.6,17.9c-0.5-0.4-1.1-0.6-1.6-0.6c-0.7,0-1.4,0.3-1.9,0.9
			c-0.9,1.1-0.8,2.7,0.3,3.6c1.5,1.3,2.4,3.2,2.4,5.2c0,2-0.9,3.9-2.4,5.2c-1.1,0.9-1.2,2.5-0.3,3.6c0.5,0.6,1.2,0.9,1.9,0.9
			c0.6,0,1.2-0.2,1.6-0.6c2.7-2.3,4.2-5.6,4.2-9.1C43.9,23.5,42.3,20.2,39.6,17.9z M47.6,11.5c-0.5-0.5-1.1-0.7-1.8-0.7
			c-0.6,0-1.3,0.2-1.8,0.7c-1,1-1,2.6,0,3.6c3.2,3.2,4.9,7.4,4.9,11.9c0,4.5-1.7,8.7-4.9,11.9c-1,1-1,2.6,0,3.6
			c0.5,0.5,1.1,0.7,1.8,0.7c0.7,0,1.3-0.2,1.8-0.7C51.7,38.3,54,32.8,54,27C54,21.2,51.7,15.7,47.6,11.5z M27,0h-3.4L11.8,11.8H3.4
			c-1.9,0-3.4,1.5-3.4,3.4v23.6c0,1.9,1.5,3.4,3.4,3.4h8.4L23.6,54H27c1.9,0,3.4-1.5,3.4-3.4V3.4C30.4,1.5,28.9,0,27,0z M25.3,48.5
			L13.9,37.1H5.1V16.9h8.8L25.3,5.5V48.5z"/>
	</g>
</g>
</svg>
