<?xml version="1.0" encoding="utf-8"?>
<!-- Generator: Adobe Illustrator 21.1.0, SVG Export Plug-In . SVG Version: 6.00 Build 0)  -->
<svg version="1.1" id="disk_1_" xmlns="http://www.w3.org/2000/svg" xmlns:xlink="http://www.w3.org/1999/xlink" x="0px" y="0px"
	 width="47px" height="47px" viewBox="0 0 47 47" style="enable-background:new 0 0 47 47;" xml:space="preserve">
<g id="disk">
	<g>
		<path style="fill-rule:evenodd;clip-rule:evenodd;fill:#FF3334;" d="M23.5,0C10.5,0,0,10.5,0,23.5C0,36.5,10.5,47,23.5,47
			C36.5,47,47,36.5,47,23.5C47,10.5,36.5,0,23.5,0z M13.5,7.3l5.1,10.8c-0.2,0.1-0.3,0.3-0.4,0.4L7.3,13.5C8.8,11,11,8.8,13.5,7.3z
			 M23.5,42.6C13,42.6,4.4,34,4.4,23.5c0-2.1,0.4-4.1,1-6l10.9,5.1c0,0.3-0.1,0.6-0.1,0.9c0,4.1,3.3,7.3,7.3,7.3
			c0.3,0,0.6-0.1,0.9-0.1l5.1,10.9C27.6,42.2,25.6,42.6,23.5,42.6z M20.6,23.5c0-1.6,1.3-2.9,2.9-2.9c1.6,0,2.9,1.3,2.9,2.9
			s-1.3,2.9-2.9,2.9C21.9,26.4,20.6,25.1,20.6,23.5z M33.5,39.7l-5.1-10.8c0.2-0.1,0.3-0.3,0.5-0.5l10.8,5.1
			C38.2,36,36,38.2,33.5,39.7z M30.7,24.4c0-0.3,0.1-0.6,0.1-0.9c0-4.1-3.3-7.3-7.3-7.3c-0.3,0-0.6,0.1-0.9,0.1L17.5,5.4
			c1.9-0.6,3.9-1,6-1C34,4.4,42.6,13,42.6,23.5c0,2.1-0.4,4.1-1,6L30.7,24.4z"/>
	</g>
</g>
</svg>
