<?xml version="1.0" encoding="utf-8"?>
<!-- Generator: Adobe Illustrator 21.1.0, SVG Export Plug-In . SVG Version: 6.00 Build 0)  -->
<svg version="1.1" id="headphones_1_" xmlns="http://www.w3.org/2000/svg" xmlns:xlink="http://www.w3.org/1999/xlink" x="0px"
	 y="0px" width="55px" height="52px" viewBox="0 0 55 52" style="enable-background:new 0 0 55 52;" xml:space="preserve">
<g id="headphones">
	<g>
		<path style="fill-rule:evenodd;clip-rule:evenodd;fill:#FF3334;" d="M50.6,31.7c0.7-2.3,1.1-4.7,1.1-7.3C51.8,10.9,40.9,0,27.5,0
			C14.1,0,3.2,10.9,3.2,24.4c0,2.5,0.4,5,1.1,7.3C1.7,33.7,0,37,0,40.6C0,46.9,5.1,52,11.3,52h1.6c1.8,0,3.2-1.5,3.2-3.3V32.5
			c0-1.8-1.4-3.3-3.2-3.3h-1.6c-0.9,0-1.7,0.1-2.5,0.3c-0.5-1.6-0.7-3.4-0.7-5.2c0-10.8,8.7-19.5,19.4-19.5
			c10.7,0,19.4,8.7,19.4,19.5c0,1.8-0.3,3.5-0.7,5.2c-0.8-0.2-1.7-0.3-2.5-0.3h-1.6c-1.8,0-3.2,1.5-3.2,3.3v16.2
			c0,1.8,1.4,3.3,3.2,3.3h1.6C49.9,52,55,46.9,55,40.6C55,37,53.3,33.7,50.6,31.7z M11.3,34.1v13c-3.6,0-6.5-2.9-6.5-6.5
			C4.9,37,7.8,34.1,11.3,34.1z M43.7,47.1v-13c3.6,0,6.5,2.9,6.5,6.5C50.1,44.2,47.2,47.1,43.7,47.1z"/>
	</g>
</g>
</svg>
