<?xml version="1.0" encoding="utf-8"?>
<!-- Generator: Adobe Illustrator 21.1.0, SVG Export Plug-In . SVG Version: 6.00 Build 0)  -->
<svg version="1.1" id="lines_1_" xmlns="http://www.w3.org/2000/svg" xmlns:xlink="http://www.w3.org/1999/xlink" x="0px" y="0px"
	 width="55px" height="40px" viewBox="0 0 55 40" style="enable-background:new 0 0 55 40;" xml:space="preserve">
<g id="lines">
	<g>
		<path style="fill-rule:evenodd;clip-rule:evenodd;fill:#FF3334;" d="M54.8,15.8L48.3,1.4C47.9,0.6,47.1,0,46.1,0
			c-1.2,0-2.1,0.8-2.4,1.9l-6.4,27.8L28.9,9.5C28.6,8.6,27.7,8,26.7,8c-1,0-1.9,0.6-2.2,1.5l-7.6,17.6l-4.1-8.2
			c-0.4-0.8-1.2-1.3-2.2-1.3c-0.7,0-1.4,0.3-1.9,0.9l-8.1,9.6C0.2,28.5,0,29,0,29.6C0,30.9,1.1,32,2.4,32c0.7,0,1.4-0.3,1.9-0.9
			l5.7-6.8l4.8,9.5c0.4,0.8,1.2,1.3,2.2,1.3c1,0,1.9-0.6,2.2-1.5l7.4-17.1l9.1,21.9C36.1,39.4,37,40,38,40c1.2,0,2.1-0.8,2.4-1.9
			L46.9,10l3.5,7.8c0.4,0.8,1.2,1.4,2.2,1.4c1.3,0,2.4-1.1,2.4-2.4C55,16.5,54.9,16.1,54.8,15.8z"/>
	</g>
</g>
</svg>
