<?xml version="1.0" encoding="utf-8"?>
<!-- Generator: Adobe Illustrator 21.1.0, SVG Export Plug-In . SVG Version: 6.00 Build 0)  -->
<svg version="1.1" id="off_1_" xmlns="http://www.w3.org/2000/svg" xmlns:xlink="http://www.w3.org/1999/xlink" x="0px" y="0px"
	 width="50px" height="51px" viewBox="0 0 50 51" style="enable-background:new 0 0 50 51;" xml:space="preserve">
<g id="off">
	<g>
		<path style="fill-rule:evenodd;clip-rule:evenodd;fill:#FF3334;" d="M25,19.1c1.3,0,2.4-1.1,2.4-2.4V2.4C27.4,1.1,26.3,0,25,0
			c-1.3,0-2.4,1.1-2.4,2.4v14.3C22.6,18.1,23.7,19.1,25,19.1z M39.2,6c-0.4-0.3-0.9-0.4-1.3-0.4c-0.8,0-1.5,0.4-2,1
			c-0.8,1.1-0.5,2.6,0.6,3.3c5.5,3.7,8.7,9.9,8.7,16.4c0,11-9,19.9-20.2,19.9c-11.1,0-20.2-8.9-20.2-19.9c0-6.5,3.3-12.6,8.7-16.4
			c1.1-0.8,1.4-2.2,0.6-3.3c-0.5-0.7-1.3-1.1-2.1-1c-0.5,0-0.9,0.1-1.3,0.4C4,10.6,0,18.2,0,26.3C0,39.9,11.2,51,25,51
			c13.8,0,25-11.1,25-24.7C50,18.2,46,10.6,39.2,6z"/>
	</g>
</g>
</svg>
